<svg version="1.1" id="Layer_1" xmlns="http://www.w3.org/2000/svg" xmlns:xlink="http://www.w3.org/1999/xlink" x="0px" y="0px"
	 width="100%" viewBox="0 0 1024 1024" enable-background="new 0 0 1024 1024" xml:space="preserve">
<path fill="#000000" opacity="1.000000" stroke="none" 
	d="
M545.111450,594.987976 
	C545.025146,554.509338 545.035400,514.527344 544.751343,474.547424 
	C544.706970,468.298828 546.973083,463.875580 552.095886,460.861786 
	C563.165039,454.349701 572.927429,445.993744 583.554260,438.844513 
	C599.564819,428.073425 615.138245,416.652924 630.909485,405.525543 
	C636.620361,401.496277 641.703125,396.639221 647.714233,392.993164 
	C650.845581,391.093842 650.885254,387.791718 650.878540,384.544769 
	C650.826416,359.390198 650.979736,334.233154 650.641724,309.082642 
	C650.563843,303.292542 652.935669,299.726379 657.237122,296.613922 
	C667.585693,289.125916 678.852722,282.869873 687.932800,273.663269 
	C689.260254,272.317322 690.976990,270.553955 693.154419,271.592468 
	C695.060547,272.501587 694.834656,274.767609 694.857239,276.511505 
	C694.969299,285.172455 694.946594,293.835541 694.923523,302.497772 
	C694.824646,339.645203 694.675354,376.792542 694.659851,413.939972 
	C694.658508,417.094391 693.717346,419.459717 691.261353,421.259430 
	C678.921143,430.302216 666.765442,439.614990 654.161133,448.274231 
	C639.776489,458.156555 625.247864,467.828522 611.305969,478.332794 
	C607.827576,480.953522 604.236023,483.386414 600.388916,485.320740 
	C596.580322,487.235657 595.127136,490.085327 595.136719,494.125305 
	C595.179565,512.274353 595.168152,530.423523 595.177490,548.572693 
	C595.181641,556.566223 595.348328,564.563965 595.137634,572.551758 
	C595.000244,577.758911 592.984741,581.786255 588.166992,584.910034 
	C576.324463,592.588684 564.906616,600.921082 553.284790,608.942505 
	C551.404541,610.240234 549.425354,611.961182 546.940002,610.326294 
	C544.627380,608.805115 544.945374,606.307129 544.973816,603.979553 
	C545.008484,601.148010 545.064392,598.316711 545.111450,594.987976 
z"/>
<path fill="#000000" opacity="1.000000" stroke="none" 
	d="
M422.014587,386.659607 
	C421.758270,390.433990 423.178192,392.840027 425.893646,394.689148 
	C449.821777,410.983826 472.809814,428.630157 497.172272,444.300079 
	C506.691437,450.422791 514.779846,458.524658 524.712219,464.084442 
	C527.163147,465.456421 527.585999,468.060791 527.584167,470.641754 
	C527.574402,483.928101 527.118164,497.229889 527.615173,510.496399 
	C528.099915,523.434509 526.737610,536.378845 528.080261,549.292175 
	C528.114624,549.623108 528.165222,549.961182 528.133423,550.288696 
	C527.820984,553.509338 529.078430,557.532654 525.666931,559.450134 
	C522.176392,561.412109 520.024719,557.667847 517.502380,556.081665 
	C507.925446,550.059265 499.045013,543.020630 489.755371,536.614502 
	C479.485931,529.532715 474.755615,520.793213 475.979401,508.405975 
	C476.517120,502.963165 476.010162,497.419037 476.015869,491.920959 
	C476.018463,489.408813 475.120911,487.584869 472.948486,486.068695 
	C442.142029,464.567902 411.417175,442.950073 380.583954,421.487946 
	C376.671204,418.764313 374.847260,415.726227 374.871674,410.770508 
	C375.037506,377.124634 374.927094,343.477295 374.880676,309.830505 
	C374.866211,299.337738 374.753204,288.845123 374.732574,278.352356 
	C374.727753,275.895477 374.259583,273.028503 377.139038,271.801514 
	C379.841125,270.650085 381.279846,273.148895 383.098541,274.487946 
	C393.269562,281.976532 403.347107,289.600677 413.697968,296.833099 
	C419.496460,300.884674 422.504883,305.251068 421.640472,313.000671 
	C420.654327,321.841644 421.744263,330.904053 421.765991,339.870605 
	C421.785248,347.830170 421.468811,355.790741 421.501068,363.750061 
	C421.531372,371.235931 421.823792,378.720734 422.014587,386.659607 
z"/>
<path fill="#000000" opacity="1.000000" stroke="none" 
	d="
M435.510071,352.337433 
	C435.366577,342.099854 435.154205,332.284332 435.031586,322.467621 
	C435.000916,320.009277 434.625214,317.098663 437.275421,315.778992 
	C439.704956,314.569153 441.686584,316.509644 443.558838,317.848755 
	C465.756165,333.725220 487.929169,349.635712 510.131897,365.504639 
	C517.034546,370.438110 524.175110,375.056061 530.886658,380.233398 
	C535.013367,383.416809 538.320068,382.920624 541.993042,379.827789 
	C556.151062,367.906097 571.633423,357.760864 586.565979,346.883820 
	C600.679199,336.603607 615.131104,326.788269 629.442627,316.780792 
	C630.916870,315.749939 632.373840,314.226715 634.376770,315.262512 
	C636.283264,316.248413 636.318848,318.242584 636.319214,320.089874 
	C636.322571,338.419708 636.293396,356.749573 636.299072,375.079407 
	C636.299927,377.805054 635.090149,379.811890 633.046631,381.510681 
	C627.154846,386.408630 620.996399,390.902435 614.594116,395.139862 
	C604.488831,401.828186 594.813477,409.162903 584.769775,415.948273 
	C576.649536,421.434143 568.996277,427.554901 560.840759,433.023071 
	C554.575745,437.223724 548.370789,441.803436 542.381775,446.529358 
	C538.095215,449.911896 534.317932,449.843842 529.758789,446.602478 
	C516.481018,437.162476 502.437408,428.739532 489.605835,418.746918 
	C473.087860,405.883453 455.318359,394.789001 438.943665,381.760956 
	C436.052795,379.460907 434.766998,376.862610 434.933624,373.199249 
	C435.243195,366.391724 435.307831,359.573059 435.510071,352.337433 
z"/>
</svg>